Coordinates																															
version=1																															
nRows=22																															
nColumns=32																															
inDegrees=no																															
																															
"Units are S.I. units (second, meters, Newtons, ...)"																															
"If the header above contains a line with 'inDegrees', this indicates whether rotational values are in degrees (yes) or radians (no)."																															
																															
endheader																															
time	pelvis_tilt	pelvis_list	pelvis_rotation	pelvis_tx	pelvis_ty	pelvis_tz	hip_flexion_r	hip_adduction_r	hip_rotation_r	knee_angle_r	ankle_angle_r	subtalar_angle_r	mtp_angle_r	hip_flexion_l	hip_adduction_l	hip_rotation_l	knee_angle_l	ankle_angle_l	subtalar_angle_l	mtp_angle_l	lumbar_extension	lumbar_bending	lumbar_rotation	arm_flex_r	arm_add_r	arm_rot_r	elbow_flex_r	arm_flex_l	arm_add_l	arm_rot_l	elbow_flex_l
0.351214286	-0.036877457	-0.126350663	-0.03237726	0.683841244	0.951172576	0.51431843	0.159647999	0.178376794	-0.096384297	0.471023881	0.189801766	-0.015556096	0.074324511	0.49716725	-0.179616231	-0.011053267	1.034868233	0.146671571	-0.256969025	0.018829259	-0.094872943	0.10583151	0.033728634	0.018871836	-0.238538645	-0.04495536	0.557624132	0.005536835	-0.178997171	0.278157264	0.468266813
0.361857143	-0.040960074	-0.12271312	-0.034838659	0.681335997	0.952230655	0.513825643	0.141024337	0.173846716	-0.087837615	0.454975462	0.194485653	-0.005876075	0.0858896	0.515312894	-0.177702164	-0.023419999	0.978977051	0.154526554	-0.248610775	0.015643618	-0.097010032	0.102924172	0.041928807	0.024572877	-0.246387933	-0.041668284	0.569724636	0.00027939	-0.172954681	0.275380862	0.463232365
0.3725	-0.045253136	-0.119468918	-0.03745985	0.678750483	0.952862451	0.51335762	0.122701085	0.169732863	-0.079364499	0.439336295	0.198260676	0.004015743	0.08499172	0.531355985	-0.176379481	-0.036385344	0.91884709	0.159946827	-0.239649993	0.0121181	-0.099190263	0.100446269	0.049703986	0.031276726	-0.25411534	-0.038538763	0.583703456	-0.004687929	-0.168051547	0.271437766	0.459298089
0.383142857	-0.049813219	-0.11677224	-0.040269339	0.676102577	0.953057184	0.512916969	0.104810267	0.166164096	-0.071020013	0.424162574	0.201499147	0.013977463	0.07555564	0.545403813	-0.175685547	-0.0494788	0.854869252	0.162788639	-0.229733427	0.008209568	-0.101324967	0.098585775	0.057041408	0.039154799	-0.261581546	-0.035378919	0.59944112	-0.009319544	-0.164280161	0.26660593	0.45621109
0.393785714	-0.054697049	-0.114751222	-0.043290234	0.673412003	0.95280637	0.51250293	0.087442789	0.163222968	-0.062864241	0.409424459	0.204751115	0.02393752	0.062486495	0.557580148	-0.175628348	-0.062220194	0.787467954	0.162929775	-0.21847031	0.003873375	-0.103318928	0.097509542	0.063925449	0.048372666	-0.268654467	-0.031993299	0.616807749	-0.013569225	-0.161622732	0.261162384	0.453730979
0.404428571	-0.059912397	-0.113461884	-0.046582291	0.670705202	0.952109333	0.51211282	0.070651807	0.160900824	-0.054975747	0.395201318	0.208383103	0.033981704	0.048898397	0.568027949	-0.176191344	-0.074121571	0.71736224	0.160770337	-0.205537025	-0.000858939	-0.105111852	0.097308826	0.070382519	0.059044108	-0.275247251	-0.028264822	0.635684335	-0.017431681	-0.160027215	0.255362378	0.451648491
0.415071428	-0.065419843	-0.112890606	-0.050239393	0.668015196	0.950973071	0.511742072	0.054452118	0.159100933	-0.047450751	0.381673548	0.212584919	0.044348426	0.036190402	0.57691062	-0.17733602	-0.084694535	0.645560781	0.157215751	-0.190671101	-0.005877713	-0.106676473	0.098001937	0.076478379	0.071232847	-0.281316414	-0.024151277	0.655963464	-0.020941409	-0.159409685	0.249438609	0.449785743
0.425714286	-0.071153272	-0.112981706	-0.054345943	0.665381322	0.949412278	0.511384268	0.038790044	0.157673623	-0.040391328	0.368976583	0.217452119	0.055383188	0.025076047	0.584449353	-0.179051167	-0.093619423	0.573368543	0.153496557	-0.173559199	-0.010917701	-0.107988902	0.099564597	0.08227282	0.084971227	-0.28683722	-0.019635953	0.677570718	-0.024162811	-0.15969565	0.24357403	0.448015215
0.436357143	-0.07701192	-0.1136281	-0.058961607	0.662850834	0.94745313	0.511030416	0.023528276	0.156413464	-0.033888727	0.357179976	0.222977957	0.067482818	0.015636445	0.590941924	-0.181356117	-0.100844686	0.502483339	0.1510707	-0.153878035	-0.015514204	-0.109027914	0.101920138	0.087806633	0.100247409	-0.291804063	-0.014734207	0.700470236	-0.027199556	-0.160827538	0.237886107	0.446275453
0.447	-0.082858519	-0.114679838	-0.064086167	0.660477239	0.945136678	0.510668396	0.008466469	0.155094274	-0.027995802	0.346277496	0.22911123	0.080843096	0.008095396	0.596741398	-0.184255879	-0.106658632	0.434939814	0.150866282	-0.131517522	-0.019081087	-0.109776068	0.104943572	0.093072467	0.116989477	-0.29621402	-0.009494609	0.72462647	-0.030191039	-0.162763932	0.232451782	0.444545842
0.457642857	-0.088523087	-0.115950075	-0.069658155	0.65831845	0.942516717	0.510283106	-0.00664718	0.153473829	-0.022738451	0.336197673	0.235741594	0.095474173	0.00276725	0.602222519	-0.187709667	-0.111581018	0.372969886	0.153056007	-0.106654374	-0.02102007	-0.110223127	0.108463648	0.09801614	0.135063842	-0.300062243	-0.003993645	0.749976659	-0.033300498	-0.165468387	0.227334988	0.442819332
0.468285714	-0.093790069	-0.117195008	-0.075516319	0.656432357	0.93966312	0.50985547	-0.02208427	0.151291788	-0.018029832	0.326897884	0.24250316	0.111183546	-0.001500882	0.607675866	-0.191503327	-0.116020834	0.31860492	0.156231771	-0.080346881	-0.02117535	-0.110393732	0.112218023	0.102516522	0.154217679	-0.303343374	0.00164462	0.776352584	-0.036688636	-0.168884307	0.222620027	0.441080269
0.478928571	-0.098414358	-0.118133309	-0.081433586	0.654876545	0.936656173	0.509363819	-0.038126274	0.148276225	-0.01370576	0.318360549	0.24885499	0.127648318	-0.006895706	0.613330504	-0.19530385	-0.120291509	0.273719309	0.157933878	-0.05425314	-0.01970422	-0.11033627	0.115883496	0.106408779	0.174118385	-0.306052103	0.007263952	0.80351357	-0.040512745	-0.172940454	0.218406479	0.43930597
0.489571428	-0.102178967	-0.118483411	-0.087187709	0.653707985	0.9335735	0.508785622	-0.054978914	0.144165262	-0.00959911	0.31063152	0.254239821	0.144484437	-0.01561593	0.61925807	-0.198699345	-0.124309971	0.239677455	0.156121164	-0.03021763	-0.017121557	-0.110076656	0.119130331	0.109541957	0.194396416	-0.308209424	0.012637828	0.831147016	-0.044912988	-0.177532152	0.214840321	0.437432004
0.500214286	-0.104921713	-0.117964753	-0.092568188	0.652982487	0.930487241	0.508096804	-0.07270297	0.138716637	-0.005540138	0.303876722	0.258075994	0.161196182	-0.029843235	0.62523215	-0.201131966	-0.127240178	0.216876558	0.149591815	-0.010417348	-0.014612562	-0.109597008	0.121618664	0.111793282	0.214614812	-0.309886522	0.017406831	0.858805872	-0.049996969	-0.182491467	0.212155477	0.435314543
0.510857143	-0.106489024	-0.116297779	-0.097366161	0.652755396	0.927468418	0.50727319	-0.091339852	0.1316927	-0.001361549	0.298276168	0.25978346	0.177270986	-0.051730419	0.630993648	-0.202027887	-0.128168983	0.205595307	0.137266448	0.002951183	-0.013430879	-0.108873262	0.123008506	0.113043671	0.234330621	-0.311159882	0.02119869	0.886027906	-0.055865374	-0.18764391	0.210592714	0.432801385
0.5215	-0.10684781	-0.113246936	-0.101388216	0.653065593	0.924563423	0.506294109	-0.110780233	0.122973859	0.0029693	0.294038431	0.258996232	0.191985477	-0.082105271	0.636324424	-0.20083458	-0.126554793	0.205632198	0.119444731	0.008569579	-0.014489798	-0.107819466	0.123009619	0.11319993	0.253179038	-0.312089137	0.023743819	0.912348231	-0.062458904	-0.192842265	0.210242983	0.429767519
0.532142857	-0.106137858	-0.108639808	-0.104463113	0.653928334	0.921783307	0.505143923	-0.130698493	0.112609926	0.007291841	0.291413071	0.255655461	0.204313807	-0.119894378	0.641065101	-0.197030072	-0.122389133	0.216096739	0.098405066	0.006379441	-0.018214254	-0.106260869	0.12140315	0.112206005	0.270907383	-0.312709742	0.024919965	0.937298136	-0.069488704	-0.197978449	0.210982286	0.426126944
0.542785714	-0.10451209	-0.102309308	-0.106422026	0.655356902	0.919136431	0.50380747	-0.150751713	0.100664221	0.011429845	0.290654546	0.249726286	0.213207212	-0.163876698	0.645060369	-0.190095941	-0.115706295	0.236042039	0.076579986	-0.003577366	-0.024987114	-0.104016669	0.117976152	0.110009415	0.28727164	-0.313054999	0.024617444	0.960408934	-0.076648155	-0.20294756	0.212669518	0.421797095
0.553428571	-0.102093687	-0.094148707	-0.10719028	0.657344835	0.91663673	0.50228162	-0.170518	0.087256231	0.015108751	0.292250264	0.241207902	0.217678877	-0.212736352	0.648090971	-0.179674552	-0.106751571	0.264096372	0.056565704	-0.020869828	-0.034608569	-0.101015403	0.112568144	0.106652253	0.302027473	-0.31312029	0.022885645	0.98125482	-0.083627178	-0.207665317	0.215097662	0.416752052
0.564071428	-0.09894635	-0.084171974	-0.106881481	0.659846189	0.91430928	0.500587296	-0.189417551	0.072617759	0.017857367	0.297153446	0.230167592	0.216865861	-0.264967827	0.649809787	-0.165729764	-0.096192175	0.298038515	0.041285724	-0.044288781	-0.045713686	-0.097404247	0.105123553	0.102365726	0.314929906	-0.312825171	0.020092041	0.999495739	-0.090108789	-0.212088685	0.217927898	0.411079156
0.574714286	-0.095126543	-0.072407777	-0.105632297	0.662810294	0.912180547	0.498748307	-0.206851518	0.056993617	0.019181315	0.306373026	0.216680024	0.209921175	-0.319040426	0.649853996	-0.148264614	-0.084745174	0.335546179	0.033697985	-0.072532071	-0.056798374	-0.093356529	0.095599849	0.097404012	0.325733878	-0.312080289	0.016641809	1.014802111	-0.095776026	-0.216179442	0.220806276	0.404879082
